<svg baseProfile="tiny" xmlns="http://www.w3.org/2000/svg" viewBox="0 0 70 70"><circle fill="#fff" cx="35" cy="35" r="35"/><path fill-rule="evenodd" fill="#DB2927" d="M35 66.998c17.626 0 32-14.373 32-31.995 0-17.627-14.374-32.001-32-32.001-17.622 0-32 14.374-32 32.001 0 17.622 14.378 31.995 32 31.995z"/><path fill="#F2EA1B" d="M31.779 31.941c1.164-3.166 2.077-6.434 3.219-9.6 1.072 3.184 2.095 6.381 3.131 9.582 3.396.071 6.769.035 10.146.035-2.689 2.06-5.485 3.974-8.176 6.046 1.037 3.22 2.073 6.435 3.092 9.653-2.743-1.972-5.451-4.008-8.229-5.944-2.725 1.953-5.415 3.955-8.158 5.874.953-3.237 2.108-6.399 3.043-9.653-2.708-1.984-5.451-3.938-8.123-5.976l10.055-.018z"/></svg>